<?xml version="1.0" encoding="UTF-8"?>
<!DOCTYPE svg PUBLIC "-//W3C//DTD SVG 1.1//EN" "http://www.w3.org/Graphics/SVG/1.1/DTD/svg11.dtd">
<!-- Creator: CorelDRAW 2020 (64 Bit) -->
<svg xmlns="http://www.w3.org/2000/svg" xml:space="preserve" width="84.6667mm" height="84.6667mm" version="1.1" style="shape-rendering:geometricPrecision; text-rendering:geometricPrecision; image-rendering:optimizeQuality; fill-rule:evenodd; clip-rule:evenodd"
viewBox="0 0 572.34 572.34"
 xmlns:xlink="http://www.w3.org/1999/xlink"
 xmlns:xodm="http://www.corel.com/coreldraw/odm/2003">
 <defs>
  <style type="text/css">
   <![CDATA[
    .fil0 {fill:none}
    .fil4 {fill:black}
    .fil3 {fill:black}
    .fil2 {fill:#A8061D}
    .fil1 {fill:#A00318;fill-rule:nonzero}
    .fil5 {fill:white;fill-rule:nonzero}
   ]]>
  </style>
 </defs>
 <g id="Camada_x0020_1">
  <metadata id="CorelCorpID_0Corel-Layer"/>
  <g id="_2517207526032">
   <polygon class="fil0" points="-0,0 572.34,0 572.34,572.34 -0,572.34 "/>
   <g>
    <path class="fil1" d="M48.27 396.73l0 -23.53 27.09 0 0 -4.23 -27.09 0 0 -23.03 29.21 0 0 -4.23 -33.69 0 0 59.26 34.12 0 0 -4.23 -29.63 0zm67.91 5.16c11.77,0 19.47,-6.43 19.47,-16.25 0,-10.24 -9.14,-13.54 -19.64,-17.02 -8.47,-2.79 -14.48,-4.99 -14.48,-12.11 0,-6.6 5.16,-11.43 13.38,-11.43 8.47,0 13.04,4.91 15.24,10.24l3.81 -2.12c-2.88,-6.86 -9.31,-12.44 -19.05,-12.44 -10.07,0 -17.95,6.18 -17.95,15.92 0,10.33 8.89,13.12 18.79,16.34 9.06,2.88 15.32,5.59 15.32,12.7 0,6.77 -4.99,11.85 -14.9,11.85 -9.73,0 -15.75,-4.83 -17.78,-11.94l-3.89 2.29c2.71,8.38 10.58,13.97 21.67,13.97zm55.63 0c11.77,0 19.47,-6.43 19.47,-16.25 0,-10.24 -9.14,-13.54 -19.64,-17.02 -8.47,-2.79 -14.48,-4.99 -14.48,-12.11 0,-6.6 5.16,-11.43 13.38,-11.43 8.47,0 13.04,4.91 15.24,10.24l3.81 -2.12c-2.88,-6.86 -9.31,-12.44 -19.05,-12.44 -10.07,0 -17.95,6.18 -17.95,15.92 0,10.33 8.89,13.12 18.79,16.34 9.06,2.88 15.32,5.59 15.32,12.7 0,6.77 -4.99,11.85 -14.9,11.85 -9.73,0 -15.75,-4.83 -17.78,-11.94l-3.89 2.29c2.71,8.38 10.58,13.97 21.67,13.97zm43.7 -5.16l0 -23.53 27.09 0 0 -4.23 -27.09 0 0 -23.03 29.21 0 0 -4.23 -33.69 0 0 59.26 34.12 0 0 -4.23 -29.63 0zm88.73 -55.03l0 50.96 -35.05 -50.96 -3.89 0 0 59.26 4.49 0 0 -50.96 34.96 50.96 3.98 0 0 -59.26 -4.49 0zm55.8 60.19c11.09,0 20.74,-5.76 25.57,-14.48l-3.98 -2.29c-3.89,7.45 -12.19,12.44 -21.59,12.44 -15.58,0 -26.33,-11.68 -26.33,-26.24 0,-14.56 10.75,-26.24 26.33,-26.24 9.31,0 17.52,4.91 21.42,12.19l3.98 -2.29c-4.91,-8.63 -14.48,-14.22 -25.4,-14.22 -18.03,0 -30.81,13.63 -30.81,30.56 0,16.93 12.78,30.56 30.81,30.56zm45.31 -60.19l0 59.26 4.49 0 0 -59.26 -4.49 0zm68.25 59.26l4.74 0 -22.94 -59.26 -4.74 0 -23.03 59.26 4.74 0 5.76 -15.07 29.71 0 5.76 15.07zm-33.78 -19.3l13.21 -34.45 13.21 34.45 -26.41 0zm60.8 15.07l0 -55.03 -4.49 0 0 59.26 32.42 0 0 -4.23 -27.94 0z"/>
    <g>
     <polygon class="fil2" points="156.27,207.92 239.26,125.66 244.35,130.75 167,208.47 253.05,294.34 287.47,259.73 292.83,264.91 252.68,304.7 "/>
     <polygon class="fil2" points="298.2,249.92 330.03,217.54 334.84,222.53 302.83,254.55 "/>
     <polygon class="fil3" points="241.76,208.29 319.76,130.94 324.85,136.03 252.49,208.84 338.54,294.71 410.71,222.35 416.08,227.53 338.17,305.07 "/>
    </g>
    <g>
     <polygon class="fil4" points="96.13,416.33 476.22,416.33 476.22,446.68 96.13,446.68 "/>
     <path class="fil5" d="M111.77 439.39c2.86,0 5.35,-1.49 6.6,-3.74l-1.03 -0.59c-1.01,1.92 -3.15,3.21 -5.57,3.21 -4.02,0 -6.8,-3.02 -6.8,-6.77 0,-3.76 2.77,-6.77 6.8,-6.77 2.4,0 4.52,1.27 5.53,3.15l1.03 -0.59c-1.27,-2.23 -3.74,-3.67 -6.56,-3.67 -4.65,0 -7.95,3.52 -7.95,7.89 0,4.37 3.3,7.89 7.95,7.89zm16.35 0c4.41,0 7.89,-3.52 7.89,-7.89 0,-4.37 -3.47,-7.89 -7.89,-7.89 -4.41,0 -7.89,3.52 -7.89,7.89 0,4.37 3.47,7.89 7.89,7.89zm0 -1.11c-3.78,0 -6.73,-3.02 -6.73,-6.77 0,-3.76 2.95,-6.77 6.73,-6.77 3.78,0 6.73,3.02 6.73,6.77 0,3.76 -2.95,6.77 -6.73,6.77zm20.87 -14.42l0 13.15 -9.05 -13.15 -1.01 0 0 15.3 1.16 0 0 -13.15 9.02 13.15 1.03 0 0 -15.3 -1.16 0zm9.42 15.54c3.04,0 5.03,-1.66 5.03,-4.2 0,-2.64 -2.36,-3.5 -5.07,-4.39 -2.18,-0.72 -3.74,-1.29 -3.74,-3.12 0,-1.7 1.33,-2.95 3.45,-2.95 2.19,0 3.37,1.27 3.93,2.64l0.98 -0.55c-0.74,-1.77 -2.4,-3.21 -4.92,-3.21 -2.6,0 -4.63,1.6 -4.63,4.11 0,2.67 2.29,3.39 4.85,4.22 2.34,0.74 3.96,1.44 3.96,3.28 0,1.75 -1.29,3.06 -3.85,3.06 -2.51,0 -4.06,-1.25 -4.59,-3.08l-1.01 0.59c0.7,2.16 2.73,3.61 5.59,3.61zm16.72 -15.54l-10.8 0 0 1.09 4.81 0 0 14.2 1.18 0 0 -14.2 4.81 0 0 -1.09zm12.06 15.3l1.33 0 -3.8 -6.42c1.94,-0.52 3.37,-2.27 3.37,-4.35 0,-2.49 -2.03,-4.52 -4.52,-4.52l-6.03 0 0 15.3 1.16 0 0 -6.27 4.83 0 3.67 6.27zm-8.5 -14.2l4.87 0c1.86,0 3.37,1.53 3.37,3.43 0,1.88 -1.51,3.41 -3.37,3.41l-4.87 0 0 -6.84zm17.5 14.44c3.37,0 5.62,-2.12 5.62,-5.35l0 -10.18 -1.16 0 0 10.18c0,2.49 -1.55,4.24 -4.46,4.24 -2.88,0 -4.44,-1.75 -4.44,-4.24l0 -10.18 -1.16 0 0 10.18c0,3.23 2.23,5.35 5.59,5.35zm18.6 -15.54l-10.8 0 0 1.09 4.81 0 0 14.2 1.18 0 0 -14.2 4.81 0 0 -1.09zm8.54 15.54c4.41,0 7.89,-3.52 7.89,-7.89 0,-4.37 -3.47,-7.89 -7.89,-7.89 -4.41,0 -7.89,3.52 -7.89,7.89 0,4.37 3.47,7.89 7.89,7.89zm0 -1.11c-3.78,0 -6.73,-3.02 -6.73,-6.77 0,-3.76 2.95,-6.77 6.73,-6.77 3.78,0 6.73,3.02 6.73,6.77 0,3.76 -2.95,6.77 -6.73,6.77zm20.48 0.87l1.33 0 -3.8 -6.42c1.94,-0.52 3.37,-2.27 3.37,-4.35 0,-2.49 -2.03,-4.52 -4.52,-4.52l-6.03 0 0 15.3 1.16 0 0 -6.27 4.83 0 3.67 6.27zm-8.5 -14.2l4.87 0c1.86,0 3.37,1.53 3.37,3.43 0,1.88 -1.51,3.41 -3.37,3.41l-4.87 0 0 -6.84zm22.53 14.2l1.22 0 -5.92 -15.3 -1.22 0 -5.94 15.3 1.22 0 1.49 -3.89 7.67 0 1.49 3.89zm-8.72 -4.98l3.41 -8.89 3.41 8.89 -6.82 0zm19.16 3.89l0 -6.08 6.99 0 0 -1.09 -6.99 0 0 -5.94 7.54 0 0 -1.09 -8.7 0 0 15.3 8.81 0 0 -1.09 -7.65 0zm16.32 -14.2l0 15.3 1.16 0 0 -15.3 -1.16 0zm15.01 0l0 13.15 -9.05 -13.15 -1.01 0 0 15.3 1.16 0 0 -13.15 9.02 13.15 1.03 0 0 -15.3 -1.16 0zm12.04 15.54c2.86,0 5.35,-1.49 6.6,-3.74l-1.03 -0.59c-1.01,1.92 -3.15,3.21 -5.57,3.21 -4.02,0 -6.8,-3.02 -6.8,-6.77 0,-3.76 2.77,-6.77 6.8,-6.77 2.4,0 4.52,1.27 5.53,3.15l1.03 -0.59c-1.27,-2.23 -3.74,-3.67 -6.56,-3.67 -4.65,0 -7.95,3.52 -7.95,7.89 0,4.37 3.3,7.89 7.95,7.89zm16.35 0c4.41,0 7.89,-3.52 7.89,-7.89 0,-4.37 -3.47,-7.89 -7.89,-7.89 -4.41,0 -7.89,3.52 -7.89,7.89 0,4.37 3.47,7.89 7.89,7.89zm0 -1.11c-3.78,0 -6.73,-3.02 -6.73,-6.77 0,-3.76 2.95,-6.77 6.73,-6.77 3.78,0 6.73,3.02 6.73,6.77 0,3.76 -2.95,6.77 -6.73,6.77zm20.48 0.87l1.33 0 -3.8 -6.42c1.94,-0.52 3.37,-2.27 3.37,-4.35 0,-2.49 -2.03,-4.52 -4.52,-4.52l-6.03 0 0 15.3 1.16 0 0 -6.27 4.83 0 3.67 6.27zm-8.5 -14.2l4.87 0c1.86,0 3.37,1.53 3.37,3.43 0,1.88 -1.51,3.41 -3.37,3.41l-4.87 0 0 -6.84zm17.44 -1.09l-5.2 0 0 15.3 1.16 0 0 -5.83 4.04 0c2.75,0 4.76,-2.03 4.76,-4.72 0,-2.71 -2.01,-4.74 -4.76,-4.74zm0 8.37l-4.04 0 0 -7.28 4.04 0c2.1,0 3.61,1.53 3.61,3.65 0,2.1 -1.51,3.63 -3.61,3.63zm14.53 7.17c4.41,0 7.89,-3.52 7.89,-7.89 0,-4.37 -3.47,-7.89 -7.89,-7.89 -4.41,0 -7.89,3.52 -7.89,7.89 0,4.37 3.47,7.89 7.89,7.89zm0 -1.11c-3.78,0 -6.73,-3.02 -6.73,-6.77 0,-3.76 2.95,-6.77 6.73,-6.77 3.78,0 6.73,3.02 6.73,6.77 0,3.76 -2.95,6.77 -6.73,6.77zm20.48 0.87l1.33 0 -3.8 -6.42c1.94,-0.52 3.37,-2.27 3.37,-4.35 0,-2.49 -2.03,-4.52 -4.52,-4.52l-6.03 0 0 15.3 1.16 0 0 -6.27 4.83 0 3.67 6.27zm-8.5 -14.2l4.87 0c1.86,0 3.37,1.53 3.37,3.43 0,1.88 -1.51,3.41 -3.37,3.41l-4.87 0 0 -6.84zm22.53 14.2l1.22 0 -5.92 -15.3 -1.22 0 -5.94 15.3 1.22 0 1.49 -3.89 7.67 0 1.49 3.89zm-8.72 -4.98l3.41 -8.89 3.41 8.89 -6.82 0zm17.92 -10.31l-5.75 0 0 15.3 5.75 0c4.22,0 7.21,-3.43 7.21,-7.65 0,-4.22 -2.99,-7.65 -7.21,-7.65zm0 14.2l-4.59 0 0 -13.11 4.59 0c3.61,0 6.08,2.93 6.08,6.56 0,3.63 -2.47,6.56 -6.08,6.56zm17.15 1.33c4.41,0 7.89,-3.52 7.89,-7.89 0,-4.37 -3.47,-7.89 -7.89,-7.89 -4.41,0 -7.89,3.52 -7.89,7.89 0,4.37 3.47,7.89 7.89,7.89zm0 -1.11c-3.78,0 -6.73,-3.02 -6.73,-6.77 0,-3.76 2.95,-6.77 6.73,-6.77 3.78,0 6.73,3.02 6.73,6.77 0,3.76 -2.95,6.77 -6.73,6.77zm20.48 0.87l1.33 0 -3.8 -6.42c1.94,-0.52 3.37,-2.27 3.37,-4.35 0,-2.49 -2.03,-4.52 -4.52,-4.52l-6.03 0 0 15.3 1.16 0 0 -6.27 4.83 0 3.67 6.27zm-8.5 -14.2l4.87 0c1.86,0 3.37,1.53 3.37,3.43 0,1.88 -1.51,3.41 -3.37,3.41l-4.87 0 0 -6.84zm22.53 14.2l1.22 0 -5.92 -15.3 -1.22 0 -5.94 15.3 1.22 0 1.49 -3.89 7.67 0 1.49 3.89zm-8.72 -4.98l3.41 -8.89 3.41 8.89 -6.82 0z"/>
    </g>
   </g>
  </g>
 </g>
</svg>
